REM MD5 65cb82d766aa39bf2a2e6a6aaf861f6a
FILE "Explosive Racing (Europe).bin" BINARY
  TRACK 01 MODE2/2352
    INDEX 01 00:00:00
  TRACK 02 AUDIO
    INDEX 00 15:02:28
    INDEX 01 15:04:28
  TRACK 03 AUDIO
    INDEX 00 15:14:37
    INDEX 01 15:16:37
  TRACK 04 AUDIO
    INDEX 00 16:27:21
    INDEX 01 16:29:21
  TRACK 05 AUDIO
    INDEX 00 20:01:24
    INDEX 01 20:03:24
  TRACK 06 AUDIO
    INDEX 00 23:24:48
    INDEX 01 23:26:48
  TRACK 07 AUDIO
    INDEX 00 27:50:05
    INDEX 01 27:52:05
  TRACK 08 AUDIO
    INDEX 00 31:43:54
    INDEX 01 31:45:54
  TRACK 09 AUDIO
    INDEX 00 35:16:01
    INDEX 01 35:18:01
  TRACK 10 AUDIO
    INDEX 00 40:27:64
    INDEX 01 40:29:64
  TRACK 11 AUDIO
    INDEX 00 41:12:21
    INDEX 01 41:14:21
  TRACK 12 AUDIO
    INDEX 00 41:39:65
    INDEX 01 41:41:65
  TRACK 13 AUDIO
    INDEX 00 42:05:60
    INDEX 01 42:07:60
  TRACK 14 AUDIO
    INDEX 00 42:30:46
    INDEX 01 42:32:46
  TRACK 15 AUDIO
    INDEX 00 42:54:43
    INDEX 01 42:56:43
  TRACK 16 AUDIO
    INDEX 00 43:19:64
    INDEX 01 43:21:64
  TRACK 17 AUDIO
    INDEX 00 43:44:68
    INDEX 01 43:46:68
  TRACK 18 AUDIO
    INDEX 00 44:10:13
    INDEX 01 44:12:13
  TRACK 19 AUDIO
    INDEX 00 48:20:71
    INDEX 01 48:22:71
  TRACK 20 AUDIO
    INDEX 00 49:55:73
    INDEX 01 49:57:73
  TRACK 21 AUDIO
    INDEX 00 50:10:32
    INDEX 01 50:12:32
  TRACK 22 AUDIO
    INDEX 00 50:36:04
    INDEX 01 50:38:04
  TRACK 23 AUDIO
    INDEX 00 51:01:54
    INDEX 01 51:03:54
  TRACK 24 AUDIO
    INDEX 00 51:25:39
    INDEX 01 51:27:39
  TRACK 25 AUDIO
    INDEX 00 51:50:06
    INDEX 01 51:52:06
  TRACK 26 AUDIO
    INDEX 00 52:13:20
    INDEX 01 52:15:20
  TRACK 27 AUDIO
    INDEX 00 52:36:54
    INDEX 01 52:38:54
  TRACK 28 AUDIO
    INDEX 00 53:00:17
    INDEX 01 53:02:17
  TRACK 29 AUDIO
    INDEX 00 56:58:62
    INDEX 01 57:00:62
REM LEADOUT 60:20:62
